<?xml version="1.0" encoding="UTF-8"?>
<svg width="2200" height="1400" viewBox="0 0 2200 1400" xmlns="http://www.w3.org/2000/svg">
<defs>
  <filter id="softShadow" x="-20%" y="-20%" width="140%" height="140%">
    <feDropShadow dx="0" dy="12" stdDeviation="12" flood-color="#1d2428" flood-opacity="0.12"/>
  </filter>
  <marker id="arrow" markerWidth="14" markerHeight="14" refX="12" refY="7" orient="auto" markerUnits="strokeWidth">
    <path d="M 0 0 L 14 7 L 0 14 z" fill="#b7c0bd"/>
  </marker>
  <pattern id="dots" x="0" y="0" width="30" height="30" patternUnits="userSpaceOnUse">
    <circle cx="2" cy="2" r="1.7" fill="#cfd5d1" opacity="0.45"/>
  </pattern>
</defs>
<rect width="2200" height="1400" fill="#f7f5ee"/>
<rect x="0" y="0" width="2200" height="1400" fill="url(#dots)" opacity="0.55"/>
<circle cx="1950" cy="155" r="210" fill="#f4c430" opacity="0.18"/>
<circle cx="120" cy="1260" r="260" fill="#4f765c" opacity="0.10"/>

<text x="70" y="76" font-family="Aptos, Arial, Helvetica, sans-serif" font-size="52" font-weight="900" fill="#171717" >
<tspan x="70" dy="0">My Sandvik Customer Portal</tspan>
</text>
<text x="72" y="120" font-family="Aptos, Arial, Helvetica, sans-serif" font-size="26" font-weight="400" fill="#59636a" >
<tspan x="72" dy="0">High-level architecture inferred from public portal features</tspan>
</text>
<text x="72" y="156" font-family="Aptos, Arial, Helvetica, sans-serif" font-size="21" font-weight="400" fill="#b65a52" >
<tspan x="72" dy="0">Technology examples are plausible/typical for this kind of service, not confirmed Sandvik internal</tspan><tspan x="72" dy="26.25">implementation.</tspan>
</text>

<g>
    <rect x="1570" y="54" width="336" height="34" rx="17" fill="#dfe8d9" stroke="#ccd3cf" stroke-width="1"/>
    <text x="1738" y="77" font-family="Aptos, Arial, Helvetica, sans-serif" font-size="18" font-weight="700" fill="#59636a" text-anchor="middle">
<tspan x="1738" dy="0">Publicly described functions</tspan>
</text>
  </g>
<g>
    <rect x="1570" y="98" width="347" height="34" rx="17" fill="#fff3b0" stroke="#ccd3cf" stroke-width="1"/>
    <text x="1743.5" y="121" font-family="Aptos, Arial, Helvetica, sans-serif" font-size="18" font-weight="700" fill="#59636a" text-anchor="middle">
<tspan x="1743.5" dy="0">Inferred / typical technology</tspan>
</text>
  </g>
<g>
    <rect x="1570" y="142" width="281" height="34" rx="17" fill="#eef1ef" stroke="#ccd3cf" stroke-width="1"/>
    <text x="1710.5" y="165" font-family="Aptos, Arial, Helvetica, sans-serif" font-size="18" font-weight="700" fill="#59636a" text-anchor="middle">
<tspan x="1710.5" dy="0">Governance &amp; operations</tspan>
</text>
  </g>

<g filter="url(#softShadow)">
  <rect x="60" y="220" width="260" height="820" rx="28" fill="#ffffff" stroke="#d7ddd8" stroke-width="2"/>
  <rect x="60" y="220" width="260" height="64" rx="28" fill="#4f765c" opacity="0.16"/>
  <rect x="84" y="246" width="70" height="8" rx="4" fill="#4f765c"/>
  <text x="172" y="263" font-family="Aptos, Arial, Helvetica, sans-serif" font-size="27" font-weight="800" fill="#171717" >
<tspan x="172" dy="0">Users</tspan>
</text>
</g>
<g filter="url(#softShadow)">
  <rect x="370" y="220" width="420" height="820" rx="28" fill="#ffffff" stroke="#d7ddd8" stroke-width="2"/>
  <rect x="370" y="220" width="420" height="64" rx="28" fill="#4f765c" opacity="0.16"/>
  <rect x="394" y="246" width="70" height="8" rx="4" fill="#4f765c"/>
  <text x="482" y="263" font-family="Aptos, Arial, Helvetica, sans-serif" font-size="27" font-weight="800" fill="#171717" >
<tspan x="482" dy="0">Experience Layer</tspan>
</text>
</g>
<g filter="url(#softShadow)">
  <rect x="840" y="220" width="420" height="820" rx="28" fill="#ffffff" stroke="#d7ddd8" stroke-width="2"/>
  <rect x="840" y="220" width="420" height="64" rx="28" fill="#f4c430" opacity="0.16"/>
  <rect x="864" y="246" width="70" height="8" rx="4" fill="#f4c430"/>
  <text x="952" y="263" font-family="Aptos, Arial, Helvetica, sans-serif" font-size="27" font-weight="800" fill="#171717" >
<tspan x="952" dy="0">API &amp; Application Services</tspan>
</text>
</g>
<g filter="url(#softShadow)">
  <rect x="1310" y="220" width="390" height="820" rx="28" fill="#ffffff" stroke="#d7ddd8" stroke-width="2"/>
  <rect x="1310" y="220" width="390" height="64" rx="28" fill="#f4c430" opacity="0.16"/>
  <rect x="1334" y="246" width="70" height="8" rx="4" fill="#f4c430"/>
  <text x="1422" y="263" font-family="Aptos, Arial, Helvetica, sans-serif" font-size="27" font-weight="800" fill="#171717" >
<tspan x="1422" dy="0">Systems Of Record</tspan>
</text>
</g>
<g filter="url(#softShadow)">
  <rect x="1740" y="220" width="400" height="820" rx="28" fill="#ffffff" stroke="#d7ddd8" stroke-width="2"/>
  <rect x="1740" y="220" width="400" height="64" rx="28" fill="#f4c430" opacity="0.16"/>
  <rect x="1764" y="246" width="70" height="8" rx="4" fill="#f4c430"/>
  <text x="1852" y="263" font-family="Aptos, Arial, Helvetica, sans-serif" font-size="27" font-weight="800" fill="#171717" >
<tspan x="1852" dy="0">Data Platform</tspan>
</text>
</g>
<g filter="url(#softShadow)">
  <rect x="60" y="1090" width="2080" height="250" rx="28" fill="#ffffff" stroke="#d7ddd8" stroke-width="2"/>
  <rect x="60" y="1090" width="2080" height="64" rx="28" fill="#dfe4e4" opacity="0.16"/>
  <rect x="84" y="1116" width="70" height="8" rx="4" fill="#dfe4e4"/>
  <text x="172" y="1133" font-family="Aptos, Arial, Helvetica, sans-serif" font-size="27" font-weight="800" fill="#171717" >
<tspan x="172" dy="0">Cross-Cutting Operations</tspan>
</text>
</g>
<g>
  <rect x="90" y="320" width="200" height="72" rx="18" fill="#dfe8d9" stroke="#bdcabc" stroke-width="2"/>
  <text x="190" y="363.48" font-family="Aptos, Arial, Helvetica, sans-serif" font-size="22" font-weight="700" fill="#171717" text-anchor="middle">
    <tspan x="190" dy="0">Customer buyer</tspan>
  </text>
</g><g>
  <rect x="90" y="438" width="200" height="72" rx="18" fill="#dfe8d9" stroke="#bdcabc" stroke-width="2"/>
  <text x="190" y="481.48" font-family="Aptos, Arial, Helvetica, sans-serif" font-size="22" font-weight="700" fill="#171717" text-anchor="middle">
    <tspan x="190" dy="0">Fleet manager</tspan>
  </text>
</g><g>
  <rect x="90" y="556" width="200" height="72" rx="18" fill="#dfe8d9" stroke="#bdcabc" stroke-width="2"/>
  <text x="190" y="599.48" font-family="Aptos, Arial, Helvetica, sans-serif" font-size="22" font-weight="700" fill="#171717" text-anchor="middle">
    <tspan x="190" dy="0">Service manager</tspan>
  </text>
</g><g>
  <rect x="90" y="674" width="200" height="72" rx="18" fill="#dfe8d9" stroke="#bdcabc" stroke-width="2"/>
  <text x="190" y="717.48" font-family="Aptos, Arial, Helvetica, sans-serif" font-size="22" font-weight="700" fill="#171717" text-anchor="middle">
    <tspan x="190" dy="0">Internal support</tspan>
  </text>
</g><g>
  <rect x="90" y="792" width="200" height="72" rx="18" fill="#dfe8d9" stroke="#bdcabc" stroke-width="2"/>
  <text x="190" y="835.48" font-family="Aptos, Arial, Helvetica, sans-serif" font-size="22" font-weight="700" fill="#171717" text-anchor="middle">
    <tspan x="190" dy="0">Business admin</tspan>
  </text>
</g><g>
  <rect x="430" y="300" width="300" height="82" rx="18" fill="#dfe8d9" stroke="#bdcabc" stroke-width="2"/>
  <text x="580" y="336.17" font-family="Aptos, Arial, Helvetica, sans-serif" font-size="23" font-weight="700" fill="#171717" text-anchor="middle">
    <tspan x="580" dy="0">My Sandvik portal web</tspan><tspan x="580" dy="25.3">/ mobile experience</tspan>
  </text>
</g><g>
  <rect x="405" y="430" width="165" height="76" rx="18" fill="#dfe8d9" stroke="#bdcabc" stroke-width="2"/>
  <text x="487.5" y="464.01" font-family="Aptos, Arial, Helvetica, sans-serif" font-size="19" font-weight="700" fill="#171717" text-anchor="middle">
    <tspan x="487.5" dy="0">Shop / quotes</tspan><tspan x="487.5" dy="20.900000000000002">/ orders</tspan>
  </text>
</g><g>
  <rect x="595" y="430" width="165" height="76" rx="18" fill="#dfe8d9" stroke="#bdcabc" stroke-width="2"/>
  <text x="677.5" y="464.01" font-family="Aptos, Arial, Helvetica, sans-serif" font-size="19" font-weight="700" fill="#171717" text-anchor="middle">
    <tspan x="677.5" dy="0">My Fleet</tspan><tspan x="677.5" dy="20.900000000000002">overview</tspan>
  </text>
</g><g>
  <rect x="405" y="548" width="165" height="76" rx="18" fill="#dfe8d9" stroke="#bdcabc" stroke-width="2"/>
  <text x="487.5" y="582.01" font-family="Aptos, Arial, Helvetica, sans-serif" font-size="19" font-weight="700" fill="#171717" text-anchor="middle">
    <tspan x="487.5" dy="0">Electronic</tspan><tspan x="487.5" dy="20.900000000000002">manuals</tspan>
  </text>
</g><g>
  <rect x="595" y="548" width="165" height="76" rx="18" fill="#dfe8d9" stroke="#bdcabc" stroke-width="2"/>
  <text x="677.5" y="582.01" font-family="Aptos, Arial, Helvetica, sans-serif" font-size="19" font-weight="700" fill="#171717" text-anchor="middle">
    <tspan x="677.5" dy="0">Safety &amp; parts</tspan><tspan x="677.5" dy="20.900000000000002">bulletins</tspan>
  </text>
</g><g>
  <rect x="405" y="666" width="165" height="76" rx="18" fill="#ffffff" stroke="#bdcabc" stroke-width="2"/>
  <text x="487.5" y="700.01" font-family="Aptos, Arial, Helvetica, sans-serif" font-size="19" font-weight="700" fill="#171717" text-anchor="middle">
    <tspan x="487.5" dy="0">Digital</tspan><tspan x="487.5" dy="20.900000000000002">service</tspan>
  </text>
</g><g>
  <rect x="595" y="666" width="165" height="76" rx="18" fill="#ffffff" stroke="#bdcabc" stroke-width="2"/>
  <text x="677.5" y="700.01" font-family="Aptos, Arial, Helvetica, sans-serif" font-size="19" font-weight="700" fill="#171717" text-anchor="middle">
    <tspan x="677.5" dy="0">Warranty</tspan><tspan x="677.5" dy="20.900000000000002">claims</tspan>
  </text>
</g><g>
  <rect x="430" y="820" width="300" height="76" rx="18" fill="#dfe8d9" stroke="#bdcabc" stroke-width="2"/>
  <text x="580" y="865.48" font-family="Aptos, Arial, Helvetica, sans-serif" font-size="22" font-weight="700" fill="#171717" text-anchor="middle">
    <tspan x="580" dy="0">Quick sign-up / login</tspan>
  </text>
</g><g>
  <rect x="885" y="300" width="330" height="76" rx="18" fill="#fff3b0" stroke="#dfd29d" stroke-width="2"/>
  <text x="1050" y="345.14" font-family="Aptos, Arial, Helvetica, sans-serif" font-size="21" font-weight="700" fill="#171717" text-anchor="middle">
    <tspan x="1050" dy="0">CDN / WAF / Load Balancer</tspan>
  </text>
</g><g>
  <rect x="885" y="396" width="330" height="76" rx="18" fill="#fff3b0" stroke="#dfd29d" stroke-width="2"/>
  <text x="1050" y="441.14" font-family="Aptos, Arial, Helvetica, sans-serif" font-size="21" font-weight="700" fill="#171717" text-anchor="middle">
    <tspan x="1050" dy="0">IAM / SSO / MFA / RBAC</tspan>
  </text>
</g><g>
  <rect x="885" y="492" width="330" height="76" rx="18" fill="#fff3b0" stroke="#dfd29d" stroke-width="2"/>
  <text x="1050" y="525.8" font-family="Aptos, Arial, Helvetica, sans-serif" font-size="20" font-weight="700" fill="#171717" text-anchor="middle">
    <tspan x="1050" dy="0">API Gateway / BFF / REST</tspan><tspan x="1050" dy="22">APIs</tspan>
  </text>
</g><g>
  <rect x="875" y="604" width="155" height="60" rx="18" fill="#ffffff" stroke="#d3d7d0" stroke-width="2"/>
  <text x="952.5" y="630.6400000000001" font-family="Aptos, Arial, Helvetica, sans-serif" font-size="16" font-weight="700" fill="#171717" text-anchor="middle">
    <tspan x="952.5" dy="0">Account &amp; RBAC</tspan><tspan x="952.5" dy="17.6">service</tspan>
  </text>
</g><g>
  <rect x="1055" y="604" width="155" height="60" rx="18" fill="#ffffff" stroke="#d3d7d0" stroke-width="2"/>
  <text x="1132.5" y="630.6400000000001" font-family="Aptos, Arial, Helvetica, sans-serif" font-size="16" font-weight="700" fill="#171717" text-anchor="middle">
    <tspan x="1132.5" dy="0">Catalog /</tspan><tspan x="1132.5" dy="17.6">pricing service</tspan>
  </text>
</g><g>
  <rect x="875" y="688" width="155" height="60" rx="18" fill="#ffffff" stroke="#d3d7d0" stroke-width="2"/>
  <text x="952.5" y="714.6400000000001" font-family="Aptos, Arial, Helvetica, sans-serif" font-size="16" font-weight="700" fill="#171717" text-anchor="middle">
    <tspan x="952.5" dy="0">Order / quote</tspan><tspan x="952.5" dy="17.6">service</tspan>
  </text>
</g><g>
  <rect x="1055" y="688" width="155" height="60" rx="18" fill="#ffffff" stroke="#d3d7d0" stroke-width="2"/>
  <text x="1132.5" y="714.6400000000001" font-family="Aptos, Arial, Helvetica, sans-serif" font-size="16" font-weight="700" fill="#171717" text-anchor="middle">
    <tspan x="1132.5" dy="0">Asset &amp; fleet</tspan><tspan x="1132.5" dy="17.6">service</tspan>
  </text>
</g><g>
  <rect x="875" y="772" width="155" height="60" rx="18" fill="#ffffff" stroke="#d3d7d0" stroke-width="2"/>
  <text x="952.5" y="798.6400000000001" font-family="Aptos, Arial, Helvetica, sans-serif" font-size="16" font-weight="700" fill="#171717" text-anchor="middle">
    <tspan x="952.5" dy="0">Warranty case</tspan><tspan x="952.5" dy="17.6">service</tspan>
  </text>
</g><g>
  <rect x="1055" y="772" width="155" height="60" rx="18" fill="#ffffff" stroke="#d3d7d0" stroke-width="2"/>
  <text x="1132.5" y="798.6400000000001" font-family="Aptos, Arial, Helvetica, sans-serif" font-size="16" font-weight="700" fill="#171717" text-anchor="middle">
    <tspan x="1132.5" dy="0">Content /</tspan><tspan x="1132.5" dy="17.6">manuals service</tspan>
  </text>
</g><g>
  <rect x="875" y="856" width="155" height="60" rx="18" fill="#ffffff" stroke="#d3d7d0" stroke-width="2"/>
  <text x="952.5" y="882.6400000000001" font-family="Aptos, Arial, Helvetica, sans-serif" font-size="16" font-weight="700" fill="#171717" text-anchor="middle">
    <tspan x="952.5" dy="0">Reporting /</tspan><tspan x="952.5" dy="17.6">notification</tspan>
  </text>
</g><g>
  <rect x="1345" y="300" width="320" height="60" rx="18" fill="#ffffff" stroke="#d3d7d0" stroke-width="2"/>
  <text x="1505" y="336.12" font-family="Aptos, Arial, Helvetica, sans-serif" font-size="18" font-weight="700" fill="#171717" text-anchor="middle">
    <tspan x="1505" dy="0">ERP / order management</tspan>
  </text>
</g><g>
  <rect x="1345" y="390" width="320" height="60" rx="18" fill="#ffffff" stroke="#d3d7d0" stroke-width="2"/>
  <text x="1505" y="426.12" font-family="Aptos, Arial, Helvetica, sans-serif" font-size="18" font-weight="700" fill="#171717" text-anchor="middle">
    <tspan x="1505" dy="0">CRM / customer master</tspan>
  </text>
</g><g>
  <rect x="1345" y="480" width="320" height="60" rx="18" fill="#ffffff" stroke="#d3d7d0" stroke-width="2"/>
  <text x="1505" y="516.12" font-family="Aptos, Arial, Helvetica, sans-serif" font-size="18" font-weight="700" fill="#171717" text-anchor="middle">
    <tspan x="1505" dy="0">PIM / parts catalogue</tspan>
  </text>
</g><g>
  <rect x="1345" y="570" width="320" height="60" rx="18" fill="#ffffff" stroke="#d3d7d0" stroke-width="2"/>
  <text x="1505" y="596.22" font-family="Aptos, Arial, Helvetica, sans-serif" font-size="18" font-weight="700" fill="#171717" text-anchor="middle">
    <tspan x="1505" dy="0">Asset registry / fleet</tspan><tspan x="1505" dy="19.8">master</tspan>
  </text>
</g><g>
  <rect x="1345" y="660" width="320" height="60" rx="18" fill="#ffffff" stroke="#d3d7d0" stroke-width="2"/>
  <text x="1505" y="696.12" font-family="Aptos, Arial, Helvetica, sans-serif" font-size="18" font-weight="700" fill="#171717" text-anchor="middle">
    <tspan x="1505" dy="0">Warranty system</tspan>
  </text>
</g><g>
  <rect x="1345" y="750" width="320" height="60" rx="18" fill="#ffffff" stroke="#d3d7d0" stroke-width="2"/>
  <text x="1505" y="786.12" font-family="Aptos, Arial, Helvetica, sans-serif" font-size="18" font-weight="700" fill="#171717" text-anchor="middle">
    <tspan x="1505" dy="0">CMS / DAM / manuals</tspan>
  </text>
</g><g>
  <rect x="1345" y="840" width="320" height="60" rx="18" fill="#ffffff" stroke="#d3d7d0" stroke-width="2"/>
  <text x="1505" y="876.12" font-family="Aptos, Arial, Helvetica, sans-serif" font-size="18" font-weight="700" fill="#171717" text-anchor="middle">
    <tspan x="1505" dy="0">IoT / telemetry platform</tspan>
  </text>
</g><g>
  <rect x="1775" y="300" width="330" height="78" rx="18" fill="#ffffff" stroke="#d3d7d0" stroke-width="2"/>
  <text x="1940" y="335.22" font-family="Aptos, Arial, Helvetica, sans-serif" font-size="18" font-weight="700" fill="#171717" text-anchor="middle">
    <tspan x="1940" dy="0">Raw / curated data lake (S3</tspan><tspan x="1940" dy="19.8">or equivalent)</tspan>
  </text>
</g><g>
  <rect x="1775" y="418" width="330" height="78" rx="18" fill="#ffffff" stroke="#d3d7d0" stroke-width="2"/>
  <text x="1940" y="453.22" font-family="Aptos, Arial, Helvetica, sans-serif" font-size="18" font-weight="700" fill="#171717" text-anchor="middle">
    <tspan x="1940" dy="0">Data processing (Databricks /</tspan><tspan x="1940" dy="19.8">Spark / Glue)</tspan>
  </text>
</g><g>
  <rect x="1775" y="536" width="330" height="78" rx="18" fill="#ffffff" stroke="#d3d7d0" stroke-width="2"/>
  <text x="1940" y="571.22" font-family="Aptos, Arial, Helvetica, sans-serif" font-size="18" font-weight="700" fill="#171717" text-anchor="middle">
    <tspan x="1940" dy="0">Analytics warehouse</tspan><tspan x="1940" dy="19.8">(Snowflake or equivalent)</tspan>
  </text>
</g><g>
  <rect x="1775" y="654" width="330" height="78" rx="18" fill="#dfe8d9" stroke="#d3d7d0" stroke-width="2"/>
  <text x="1940" y="689.22" font-family="Aptos, Arial, Helvetica, sans-serif" font-size="18" font-weight="700" fill="#171717" text-anchor="middle">
    <tspan x="1940" dy="0">Data catalogue / lineage /</tspan><tspan x="1940" dy="19.8">ownership</tspan>
  </text>
</g><g>
  <rect x="1775" y="772" width="330" height="78" rx="18" fill="#ffffff" stroke="#d3d7d0" stroke-width="2"/>
  <text x="1940" y="807.22" font-family="Aptos, Arial, Helvetica, sans-serif" font-size="18" font-weight="700" fill="#171717" text-anchor="middle">
    <tspan x="1940" dy="0">BI dashboards &amp; portal</tspan><tspan x="1940" dy="19.8">reports</tspan>
  </text>
</g><path d="M 290 500 C 347.5 500, 347.5 500, 405 500" fill="none" stroke="#b7c0bd" stroke-width="4"  marker-end="url(#arrow)"/><path d="M 730 500 C 807.5 500, 807.5 500, 885 500" fill="none" stroke="#b7c0bd" stroke-width="4"  marker-end="url(#arrow)"/><path d="M 1215 500 C 1280 500, 1280 500, 1345 500" fill="none" stroke="#b7c0bd" stroke-width="4"  marker-end="url(#arrow)"/><path d="M 1665 590 C 1720 590, 1720 590, 1775 590" fill="none" stroke="#b7c0bd" stroke-width="4"  marker-end="url(#arrow)"/><path d="M 1940 850 C 1500 850, 1500 910, 1060 910" fill="none" stroke="#8da39a" stroke-width="3" stroke-dasharray="9 9" marker-end="url(#arrow)"/><text x="1518" y="942" font-family="Aptos, Arial, Helvetica, sans-serif" font-size="17" font-weight="700" fill="#4f765c" >
<tspan x="1518" dy="0">analytics / insights back to portal</tspan>
</text><g>
  <rect x="105" y="1190" width="245" height="58" rx="18" fill="#eef1ef" stroke="#cdd3d0" stroke-width="2"/>
  <text x="227.5" y="1225.8" font-family="Aptos, Arial, Helvetica, sans-serif" font-size="20" font-weight="700" fill="#171717" text-anchor="middle">
    <tspan x="227.5" dy="0">CI/CD pipelines</tspan>
  </text>
</g><g>
  <rect x="380" y="1190" width="285" height="58" rx="18" fill="#eef1ef" stroke="#cdd3d0" stroke-width="2"/>
  <text x="522.5" y="1215.2199999999998" font-family="Aptos, Arial, Helvetica, sans-serif" font-size="18" font-weight="700" fill="#171717" text-anchor="middle">
    <tspan x="522.5" dy="0">IaC: Terraform /</tspan><tspan x="522.5" dy="19.8">CloudFormation / CDK</tspan>
  </text>
</g><g>
  <rect x="695" y="1190" width="280" height="58" rx="18" fill="#eef1ef" stroke="#cdd3d0" stroke-width="2"/>
  <text x="835" y="1225.46" font-family="Aptos, Arial, Helvetica, sans-serif" font-size="19" font-weight="700" fill="#171717" text-anchor="middle">
    <tspan x="835" dy="0">AWS infrastructure example</tspan>
  </text>
</g><g>
  <rect x="1005" y="1190" width="275" height="58" rx="18" fill="#eef1ef" stroke="#cdd3d0" stroke-width="2"/>
  <text x="1142.5" y="1215.2199999999998" font-family="Aptos, Arial, Helvetica, sans-serif" font-size="18" font-weight="700" fill="#171717" text-anchor="middle">
    <tspan x="1142.5" dy="0">Blue-green / canary</tspan><tspan x="1142.5" dy="19.8">releases</tspan>
  </text>
</g><g>
  <rect x="1310" y="1190" width="260" height="58" rx="18" fill="#eef1ef" stroke="#cdd3d0" stroke-width="2"/>
  <text x="1440" y="1225.12" font-family="Aptos, Arial, Helvetica, sans-serif" font-size="18" font-weight="700" fill="#171717" text-anchor="middle">
    <tspan x="1440" dy="0">Monitoring: logs, SLAs, MTTR</tspan>
  </text>
</g><g>
  <rect x="1600" y="1190" width="230" height="58" rx="18" fill="#eef1ef" stroke="#cdd3d0" stroke-width="2"/>
  <text x="1715" y="1225.12" font-family="Aptos, Arial, Helvetica, sans-serif" font-size="18" font-weight="700" fill="#171717" text-anchor="middle">
    <tspan x="1715" dy="0">GDPR / ISEC controls</tspan>
  </text>
</g><g>
  <rect x="1860" y="1190" width="220" height="58" rx="18" fill="#eef1ef" stroke="#cdd3d0" stroke-width="2"/>
  <text x="1970" y="1225.12" font-family="Aptos, Arial, Helvetica, sans-serif" font-size="18" font-weight="700" fill="#171717" text-anchor="middle">
    <tspan x="1970" dy="0">Supplier governance</tspan>
  </text>
</g><text x="140" y="1164" font-family="Aptos, Arial, Helvetica, sans-serif" font-size="19" font-weight="700" fill="#59636a" >
<tspan x="140" dy="0">Service ownership, DevOps and security controls across every layer.</tspan>
</text><line x1="120" y1="1282" x2="2080" y2="1282" stroke="#b7c0bd" stroke-width="3" stroke-dasharray="10 12"/><text x="140" y="1322" font-family="Aptos, Arial, Helvetica, sans-serif" font-size="20" font-weight="800" fill="#171717" >
<tspan x="140" dy="0">Service Owner focus: reliability, roadmap alignment, access control, data quality, supplier performance, release readiness, security, customer experience and measurable</tspan><tspan x="140" dy="25">improvement.</tspan>
</text><text x="70" y="1376" font-family="Aptos, Arial, Helvetica, sans-serif" font-size="16" font-weight="400" fill="#59636a" >
<tspan x="70" dy="0">Public feature basis: Shop, My Fleet, electronic manuals, bulletins, Digital Service Solutions, warranty portal, quick sign-up/login.</tspan>
</text><text x="1145" y="1376" font-family="Aptos, Arial, Helvetica, sans-serif" font-size="16" font-weight="400" fill="#b65a52" >
<tspan x="1145" dy="0">Architecture note: technologies are interview-ready examples, not a claim about Sandvik's private</tspan>
</text></svg>